<svg id="visual" viewBox="0 0 600 900" width="600" height="900" xmlns="http://www.w3.org/2000/svg" xmlns:xlink="http://www.w3.org/1999/xlink" version="1.1"><rect x="0" y="0" width="600" height="900" fill="#9c801c"></rect><path d="M0 475L9.2 475.2C18.3 475.3 36.7 475.7 54.8 473C73 470.3 91 464.7 109.2 453.7C127.3 442.7 145.7 426.3 163.8 428.3C182 430.3 200 450.7 218.2 459.7C236.3 468.7 254.7 466.3 272.8 459.5C291 452.7 309 441.3 327.2 447.5C345.3 453.7 363.7 477.3 381.8 484.3C400 491.3 418 481.7 436.2 474.5C454.3 467.3 472.7 462.7 490.8 457.7C509 452.7 527 447.3 545.2 454.3C563.3 461.3 581.7 480.7 590.8 490.3L600 500L600 901L590.8 901C581.7 901 563.3 901 545.2 901C527 901 509 901 490.8 901C472.7 901 454.3 901 436.2 901C418 901 400 901 381.8 901C363.7 901 345.3 901 327.2 901C309 901 291 901 272.8 901C254.7 901 236.3 901 218.2 901C200 901 182 901 163.8 901C145.7 901 127.3 901 109.2 901C91 901 73 901 54.8 901C36.7 901 18.3 901 9.2 901L0 901Z" fill="#ffc700"></path><path d="M0 542L9.2 540.8C18.3 539.7 36.7 537.3 54.8 536C73 534.7 91 534.3 109.2 536C127.3 537.7 145.7 541.3 163.8 549.8C182 558.3 200 571.7 218.2 571.3C236.3 571 254.7 557 272.8 554.5C291 552 309 561 327.2 570.8C345.3 580.7 363.7 591.3 381.8 588.5C400 585.7 418 569.3 436.2 567.7C454.3 566 472.7 579 490.8 573.3C509 567.7 527 543.3 545.2 545C563.3 546.7 581.7 574.3 590.8 588.2L600 602L600 901L590.8 901C581.7 901 563.3 901 545.2 901C527 901 509 901 490.8 901C472.7 901 454.3 901 436.2 901C418 901 400 901 381.8 901C363.7 901 345.3 901 327.2 901C309 901 291 901 272.8 901C254.7 901 236.3 901 218.2 901C200 901 182 901 163.8 901C145.7 901 127.3 901 109.2 901C91 901 73 901 54.8 901C36.7 901 18.3 901 9.2 901L0 901Z" fill="#ba942e"></path><path d="M0 687L9.2 682C18.3 677 36.7 667 54.8 670.7C73 674.3 91 691.7 109.2 690.2C127.3 688.7 145.7 668.3 163.8 664.2C182 660 200 672 218.2 675.3C236.3 678.7 254.7 673.3 272.8 672.2C291 671 309 674 327.2 676.7C345.3 679.3 363.7 681.7 381.8 674.2C400 666.7 418 649.3 436.2 648.8C454.3 648.3 472.7 664.7 490.8 664.7C509 664.7 527 648.3 545.2 641C563.3 633.7 581.7 635.3 590.8 636.2L600 637L600 901L590.8 901C581.7 901 563.3 901 545.2 901C527 901 509 901 490.8 901C472.7 901 454.3 901 436.2 901C418 901 400 901 381.8 901C363.7 901 345.3 901 327.2 901C309 901 291 901 272.8 901C254.7 901 236.3 901 218.2 901C200 901 182 901 163.8 901C145.7 901 127.3 901 109.2 901C91 901 73 901 54.8 901C36.7 901 18.3 901 9.2 901L0 901Z" fill="#786437"></path><path d="M0 784L9.2 777C18.3 770 36.7 756 54.8 754C73 752 91 762 109.2 768.8C127.3 775.7 145.7 779.3 163.8 778.8C182 778.3 200 773.7 218.2 767C236.3 760.3 254.7 751.7 272.8 752.5C291 753.3 309 763.7 327.2 770.3C345.3 777 363.7 780 381.8 783.3C400 786.7 418 790.3 436.2 785C454.3 779.7 472.7 765.3 490.8 762.2C509 759 527 767 545.2 768C563.3 769 581.7 763 590.8 760L600 757L600 901L590.8 901C581.7 901 563.3 901 545.2 901C527 901 509 901 490.8 901C472.7 901 454.3 901 436.2 901C418 901 400 901 381.8 901C363.7 901 345.3 901 327.2 901C309 901 291 901 272.8 901C254.7 901 236.3 901 218.2 901C200 901 182 901 163.8 901C145.7 901 127.3 901 109.2 901C91 901 73 901 54.8 901C36.7 901 18.3 901 9.2 901L0 901Z" fill="#383838"></path></svg>